<svg xmlns="http://www.w3.org/2000/svg" xmlns:xlink="http://www.w3.org/1999/xlink" version="1.1" id="Layer_1" x="0px" y="0px" viewBox="0.1016998291015625 0 246.79672241210938 48" style="enable-background:new 0 0 247 48;" xml:space="preserve"> <style type="text/css"> .st0{fill:#FF6600;} .st1{fill:#FFFFFF;} </style> <g> <g> <g> <path class="st0" d="M39.3975,0H8.8052c-4.788,0-8.7035,3.9163-8.7035,8.7034v30.5939C0.1017,44.0837,4.0172,48,8.8052,48 h30.5923c4.7879,0,8.7035-3.9163,8.7035-8.7027V8.7034C48.101,3.9163,44.1854,0,39.3975,0z"></path> </g> <path class="st1" d="M33.6567,10.2142c-0.3765-0.1464-0.7957-0.0541-1.0661,0.2364l-8.4888,8.9459l-8.4897-8.9459 c-0.2727-0.2905-0.6927-0.3812-1.0676-0.2364c-0.3726,0.1496-0.6128,0.5059-0.6128,0.9049v15.9195 c0,0.5376,0.437,0.9731,0.9746,0.9731c0.5384,0,0.9754-0.4354,0.9754-0.9731v-13.476l7.2431,7.6367V34.435l-3.5591-3.7513 c-0.1806-0.1907-0.4207-0.2975-0.6841-0.3037c-0.2658-0.0155-0.5044,0.0883-0.6919,0.2657 c-0.189,0.179-0.299,0.4215-0.3053,0.6826c-0.0062,0.2588,0.0884,0.5067,0.2674,0.695l5.2411,5.5262 c0.0039,0.0031,0.007,0.0039,0.0101,0.0077c0.0286,0.0287,0.0605,0.0543,0.0945,0.0806c0.0163,0.0139,0.0333,0.0302,0.0527,0.0442 c0.0427,0.0286,0.0907,0.0541,0.1371,0.0751c0.0101,0.007,0.0201,0.0132,0.0303,0.0178c0.1185,0.0503,0.2494,0.0798,0.3843,0.0798 c0.134,0,0.2642-0.0295,0.3827-0.0805c0.0062-0.0016,0.0101-0.007,0.0163-0.0078c0.0527-0.024,0.1046-0.0518,0.1519-0.0843 c0.0163-0.0125,0.0317-0.028,0.0496-0.0419c0.0325-0.0263,0.065-0.0527,0.0952-0.0829c0.0023-0.0038,0.0078-0.0046,0.0101-0.0077 l5.2466-5.5317c0.1813-0.189,0.2751-0.437,0.2665-0.6965c-0.0062-0.2603-0.1146-0.502-0.3021-0.6795 c-0.1891-0.1797-0.4331-0.2743-0.6966-0.2696c-0.2587,0.0078-0.502,0.117-0.6817,0.3045l-3.5646,3.7583V21.1993l7.2454-7.6367 v13.476c0,0.5376,0.4385,0.9731,0.9762,0.9731c0.5369,0,0.9731-0.4354,0.9731-0.9731V11.1191 C34.2702,10.7201,34.0323,10.3638,33.6567,10.2142z"></path>  </g> </g> </svg>